<?xml version="1.0" encoding="UTF-8"?>
<!-- Created with Inkscape (http://www.inkscape.org/) -->
<svg width="210mm" height="297mm" version="1.1" viewBox="0 0 210 297" xmlns="http://www.w3.org/2000/svg" xmlns:cc="http://creativecommons.org/ns#" xmlns:dc="http://purl.org/dc/elements/1.1/" xmlns:rdf="http://www.w3.org/1999/02/22-rdf-syntax-ns#">
 <metadata>
  <rdf:RDF>
   <cc:Work rdf:about="">
    <dc:format>image/svg+xml</dc:format>
    <dc:type rdf:resource="http://purl.org/dc/dcmitype/StillImage"/>
    <dc:title/>
   </cc:Work>
  </rdf:RDF>
 </metadata>
 <path d="m113.68 171.4c0-15.28-.0936-27.781-.20806-27.781-.11444 0-6.5908 6.5328-14.392 14.517l-14.184 14.517-3.3833-3.3908-3.3833-3.3908 2.8813-2.9907c1.5847-1.6449 9.0776-9.3416 16.651-17.104 7.5733-7.7623 13.77-14.21 13.77-14.328s-6.3118-6.6855-14.026-14.594c-7.7144-7.9086-15.209-15.605-16.655-17.104l-2.6287-2.7246 3.4257-3.3921 3.4257-3.3921 14.143 14.517c7.7788 7.9845 14.238 14.517 14.354 14.517s.21033-12.502.21033-27.781c0-22.367.0659-27.781.33798-27.781.36663 0 38.556 39.011 38.556 39.386 0 .12519-6.1317 6.5134-13.626 14.196-7.4943 7.6826-13.626 14.053-13.626 14.156 0 .1032 6.2532 6.5964 13.896 14.429 7.6427 7.8329 13.864 14.32 13.824 14.417-.0393.0962-8.5758 8.8842-18.97 19.529-16.202 16.592-19.005 19.354-19.645 19.354h-.74667zm18.022-4.101c4.1031-3.638 7.586-6.6966 7.7396-6.7969.31814-.20763-.23444-.81057-9.287-10.134l-6.4199-6.6117v15.167c0 9.5566.0938 15.134.25356 15.078.13946-.0485 3.6107-3.0648 7.7138-6.7028zm-.19204-56.127c4.1638-4.3126 7.5705-7.933 7.5705-8.0455 0-.22631-14.954-14.276-15.195-14.276-.083 0-.15083 6.7866-.15083 15.081 0 8.2947.0461 15.081.10242 15.081.0563 0 3.5091-3.5285 7.6729-7.841z" fill="#323232" stroke-width=".26458"/>
</svg>
